<svg width="18" height="18" viewBox="0 0 18 18" fill="none" xmlns="http://www.w3.org/2000/svg">
<path d="M6 0H2C1.46957 0 0.960859 0.210714 0.585786 0.585786C0.210714 0.960859 0 1.46957 0 2V6C0 6.53043 0.210714 7.03914 0.585786 7.41421C0.960859 7.78929 1.46957 8 2 8H6C6.53043 8 7.03914 7.78929 7.41421 7.41421C7.78929 7.03914 8 6.53043 8 6V2C8 1.46957 7.78929 0.960859 7.41421 0.585786C7.03914 0.210714 6.53043 0 6 0ZM6 10H2C1.46957 10 0.960859 10.2107 0.585786 10.5858C0.210714 10.9609 0 11.4696 0 12V16C0 16.5304 0.210714 17.0391 0.585786 17.4142C0.960859 17.7893 1.46957 18 2 18H6C6.53043 18 7.03914 17.7893 7.41421 17.4142C7.78929 17.0391 8 16.5304 8 16V12C8 11.4696 7.78929 10.9609 7.41421 10.5858C7.03914 10.2107 6.53043 10 6 10ZM16 10H12C11.4696 10 10.9609 10.2107 10.5858 10.5858C10.2107 10.9609 10 11.4696 10 12V16C10 16.5304 10.2107 17.0391 10.5858 17.4142C10.9609 17.7893 11.4696 18 12 18H16C16.5304 18 17.0391 17.7893 17.4142 17.4142C17.7893 17.0391 18 16.5304 18 16V12C18 11.4696 17.7893 10.9609 17.4142 10.5858C17.0391 10.2107 16.5304 10 16 10ZM14 0C14.2449 3.23106e-05 14.4813 0.0899562 14.6644 0.252715C14.8474 0.415475 14.9643 0.639749 14.993 0.883L15 1V3H17C17.2549 3.00028 17.5 3.09788 17.6854 3.27285C17.8707 3.44782 17.9822 3.68695 17.9972 3.94139C18.0121 4.19584 17.9293 4.44638 17.7657 4.64183C17.6021 4.83729 17.3701 4.9629 17.117 4.993L17 5H15V7C14.9997 7.25488 14.9021 7.50003 14.7272 7.68537C14.5522 7.8707 14.313 7.98224 14.0586 7.99717C13.8042 8.01211 13.5536 7.92933 13.3582 7.76574C13.1627 7.60215 13.0371 7.3701 13.007 7.117L13 7V5H11C10.7451 4.99972 10.5 4.90212 10.3146 4.72715C10.1293 4.55218 10.0178 4.31305 10.0028 4.05861C9.98789 3.80416 10.0707 3.55362 10.2343 3.35817C10.3979 3.16271 10.6299 3.0371 10.883 3.007L11 3H13V1C13 0.734784 13.1054 0.48043 13.2929 0.292893C13.4804 0.105357 13.7348 0 14 0Z" fill="#DBDBDB"/>
</svg>
