<svg width="13" height="14" viewBox="0 0 13 14" fill="none" xmlns="http://www.w3.org/2000/svg">
<circle cx="6.5" cy="6.5" r="6" fill="white" stroke="#D8D8D8"/>
<path d="M6.95 3.9C6.46333 3.9 6.02667 4.02 5.64 4.26C5.26 4.5 4.95667 4.82667 4.73 5.24C4.51 5.65333 4.4 6.11667 4.4 6.63C4.4 7.14333 4.51 7.60667 4.73 8.02C4.95667 8.43333 5.26 8.76 5.64 9C6.02667 9.24 6.46333 9.36 6.95 9.36C7.41667 9.36 7.84 9.26333 8.22 9.07C8.60667 8.88333 8.9 8.62667 9.1 8.3L8.53 7.6C8.42333 7.75333 8.28667 7.89333 8.12 8.02C7.95333 8.14667 7.77667 8.24667 7.59 8.32C7.40333 8.39333 7.22333 8.43 7.05 8.43C6.73 8.43 6.44333 8.35 6.19 8.19C5.94333 8.03667 5.74667 7.82333 5.6 7.55C5.45333 7.27667 5.38 6.97 5.38 6.63C5.38 6.29 5.45667 5.98333 5.61 5.71C5.76333 5.44333 5.96667 5.23 6.22 5.07C6.47333 4.91 6.75333 4.83 7.06 4.83C7.24 4.83 7.41333 4.86 7.58 4.92C7.75333 4.98 7.92 5.07 8.08 5.19C8.24 5.31 8.39 5.45667 8.53 5.63L9.1 4.93C8.88667 4.63 8.58 4.38333 8.18 4.19C7.78667 3.99667 7.37667 3.9 6.95 3.9Z" fill="#2D3633"/>
</svg>
