<svg width="20" height="20" viewBox="0 0 20 20" fill="none" xmlns="http://www.w3.org/2000/svg">
<path d="M18.1242 5.15625H15.5055L17.8305 2.83125C17.8765 2.78834 17.9135 2.73659 17.9391 2.67909C17.9647 2.62159 17.9785 2.55952 17.9796 2.49658C17.9807 2.43364 17.9691 2.37112 17.9455 2.31275C17.922 2.25438 17.8869 2.20136 17.8424 2.15685C17.7978 2.11234 17.7448 2.07725 17.6865 2.05367C17.6281 2.0301 17.5656 2.01852 17.5026 2.01963C17.4397 2.02074 17.3776 2.03452 17.3201 2.06014C17.2626 2.08576 17.2109 2.1227 17.168 2.16875L14.843 4.49375V1.875C14.843 1.75068 14.7936 1.63145 14.7057 1.54354C14.6178 1.45564 14.4985 1.40625 14.3742 1.40625C14.2499 1.40625 14.1307 1.45564 14.0428 1.54354C13.9548 1.63145 13.9055 1.75068 13.9055 1.875V4.69922C12.9747 4.08938 11.8623 3.81861 10.7554 3.93243C9.6485 4.04625 8.61452 4.53773 7.82734 5.32422C4.69999 8.39062 2.34687 15.7383 2.13827 16.4062C2.04065 16.6104 2.00875 16.8398 2.04696 17.0628C2.08516 17.2858 2.1916 17.4915 2.3516 17.6515C2.5116 17.8115 2.71729 17.918 2.94032 17.9562C3.16334 17.9944 3.39273 17.9625 3.59687 17.8648C4.26093 17.6562 11.6141 15.3016 14.6742 12.1797C15.4615 11.3923 15.9534 10.3577 16.0673 9.25012C16.1811 8.14251 15.9099 7.02949 15.2992 6.09844H18.1242C18.2485 6.09844 18.3678 6.04905 18.4557 5.96114C18.5436 5.87324 18.593 5.75401 18.593 5.62969C18.593 5.50537 18.5436 5.38614 18.4557 5.29823C18.3678 5.21032 18.2485 5.16094 18.1242 5.16094V5.15625ZM14.0078 11.5164C13.2805 12.2656 12.2648 12.9688 11.1469 13.6125L9.07968 11.5445C8.99172 11.4566 8.87243 11.4072 8.74804 11.4072C8.62365 11.4072 8.50435 11.4566 8.4164 11.5445C8.32844 11.6325 8.27903 11.7518 8.27903 11.8762C8.27903 12.0006 8.32844 12.1199 8.4164 12.2078L10.2914 14.0828C7.03437 15.8016 3.33827 16.9594 3.28124 16.9734C3.25269 16.9825 3.22498 16.994 3.19843 17.0078C3.16893 17.0233 3.13526 17.0289 3.10233 17.0239C3.0694 17.0189 3.03894 17.0035 3.01539 16.9799C2.99184 16.9564 2.97643 16.9259 2.97141 16.893C2.96639 16.86 2.97203 16.8264 2.98749 16.7969C3.00136 16.7719 3.01312 16.7457 3.02265 16.7188C3.04609 16.6406 5.27655 9.50937 8.16171 6.32812L10.9172 9.08281C10.9601 9.12887 11.0118 9.16581 11.0693 9.19143C11.1268 9.21705 11.1889 9.23082 11.2519 9.23193C11.3148 9.23304 11.3773 9.22146 11.4357 9.19789C11.494 9.17431 11.5471 9.13922 11.5916 9.09471C11.6361 9.0502 11.6712 8.99718 11.6948 8.93881C11.7183 8.88044 11.7299 8.81793 11.7288 8.75499C11.7277 8.69205 11.7139 8.62998 11.6883 8.57248C11.6627 8.51498 11.6257 8.46323 11.5797 8.42031L8.83749 5.67812C9.62087 5.06224 10.61 4.76902 11.6025 4.85849C12.5949 4.94795 13.5157 5.41333 14.1763 6.15938C14.8369 6.90544 15.1874 7.87575 15.1561 8.87175C15.1248 9.86775 14.714 10.8141 14.0078 11.5172V11.5164Z" fill="#4B5563"/>
</svg>
