<svg width="20" height="18" viewBox="0 0 20 18" fill="none" xmlns="http://www.w3.org/2000/svg">
<path d="M12.8 4.59004L14 5.90596L7.2 13.3629L6 12.047L12.8 4.59004ZM2 0.203613H18C19.11 0.203613 20 1.17959 20 2.39682V6.78325C19.4696 6.78325 18.9609 7.01432 18.5858 7.42563C18.2107 7.83693 18 8.39478 18 8.97646C18 9.55814 18.2107 10.116 18.5858 10.5273C18.9609 10.9386 19.4696 11.1697 20 11.1697V15.5561C20 16.7733 19.11 17.7493 18 17.7493H2C1.46957 17.7493 0.960859 17.5182 0.585786 17.1069C0.210714 16.6956 0 16.1378 0 15.5561V11.1697C1.11 11.1697 2 10.1937 2 8.97646C2 8.39478 1.78929 7.83693 1.41421 7.42563C1.03914 7.01432 0.530433 6.78325 0 6.78325V2.39682C0 1.81515 0.210714 1.2573 0.585786 0.84599C0.960859 0.434683 1.46957 0.203613 2 0.203613ZM2 2.39682V5.1822C2.60768 5.56645 3.11236 6.11943 3.46325 6.7855C3.81415 7.45157 3.9989 8.20723 3.9989 8.97646C3.9989 9.74569 3.81415 10.5014 3.46325 11.1674C3.11236 11.8335 2.60768 12.3865 2 12.7707V15.5561H18V12.7707C17.3923 12.3865 16.8876 11.8335 16.5367 11.1674C16.1858 10.5014 16.0011 9.74569 16.0011 8.97646C16.0011 8.20723 16.1858 7.45157 16.5367 6.7855C16.8876 6.11943 17.3923 5.56645 18 5.1822V2.39682H2ZM7.5 4.59004C8.33 4.59004 9 5.32476 9 6.23495C9 7.14513 8.33 7.87985 7.5 7.87985C6.67 7.87985 6 7.14513 6 6.23495C6 5.32476 6.67 4.59004 7.5 4.59004ZM12.5 10.0731C13.33 10.0731 14 10.8078 14 11.718C14 12.6282 13.33 13.3629 12.5 13.3629C11.67 13.3629 11 12.6282 11 11.718C11 10.8078 11.67 10.0731 12.5 10.0731Z" fill="#2D3633"/>
</svg>
