<svg width="13" height="13" viewBox="0 0 13 13" fill="none" xmlns="http://www.w3.org/2000/svg">
<path fill-rule="evenodd" clip-rule="evenodd" d="M6.5 12.125C7.23869 12.125 7.97014 11.9795 8.65259 11.6968C9.33505 11.4141 9.95515 10.9998 10.4775 10.4775C10.9998 9.95515 11.4141 9.33505 11.6968 8.65259C11.9795 7.97014 12.125 7.23869 12.125 6.5C12.125 5.76131 11.9795 5.02986 11.6968 4.34741C11.4141 3.66495 10.9998 3.04485 10.4775 2.52252C9.95515 2.00019 9.33505 1.58586 8.65259 1.30318C7.97014 1.02049 7.23869 0.875 6.5 0.875C5.00816 0.875 3.57742 1.46763 2.52252 2.52252C1.46763 3.57742 0.875 5.00816 0.875 6.5C0.875 7.99184 1.46763 9.42258 2.52252 10.4775C3.57742 11.5324 5.00816 12.125 6.5 12.125ZM6.355 8.775L9.48 5.025L8.52 4.225L5.8325 7.44938L4.44187 6.05813L3.55813 6.94187L5.43313 8.81687L5.91688 9.30063L6.355 8.775Z" fill="#FA9D2B"/>
</svg>
