<svg width="20" height="20" viewBox="0 0 20 20" fill="none" xmlns="http://www.w3.org/2000/svg">
<path d="M12.9693 5.93714C12.9693 6.09166 12.9235 6.2427 12.8376 6.37118C12.7518 6.49966 12.6298 6.59979 12.487 6.65892C12.3443 6.71805 12.1872 6.73352 12.0356 6.70338C11.8841 6.67324 11.7449 6.59883 11.6356 6.48957C11.5264 6.38031 11.452 6.2411 11.4218 6.08956C11.3917 5.93801 11.4071 5.78093 11.4663 5.63817C11.5254 5.49542 11.6255 5.3734 11.754 5.28756C11.8825 5.20171 12.0335 5.15589 12.188 5.15589C12.3952 5.15589 12.594 5.2382 12.7405 5.38471C12.887 5.53123 12.9693 5.72994 12.9693 5.93714ZM16.7974 11.1457C15.2998 13.8442 12.492 15.2926 8.44976 15.4535L6.68961 19.559C6.65348 19.6434 6.59336 19.7154 6.51669 19.766C6.44002 19.8165 6.35019 19.8434 6.25836 19.8434H6.22867C6.13206 19.8373 6.03971 19.8014 5.96432 19.7407C5.88892 19.68 5.83416 19.5974 5.80758 19.5043L4.62711 15.3723L0.496638 14.1895C0.403435 14.1629 0.320748 14.1082 0.259956 14.0327C0.199165 13.9572 0.163257 13.8648 0.157174 13.7681C0.151092 13.6714 0.175135 13.5751 0.225993 13.4926C0.276851 13.4102 0.352025 13.3455 0.441169 13.3075L4.54742 11.5504C4.70992 7.5098 6.15758 4.70277 8.85445 3.20277C12.4662 1.19808 17.1099 2.34339 17.3513 2.48245C17.4196 2.52254 17.4765 2.57925 17.517 2.6473C17.6568 2.88558 18.8029 7.52933 16.7974 11.1442V11.1457ZM13.0474 13.4614C12.2431 13.2447 11.529 12.777 11.009 12.1262C10.4891 11.4754 10.1905 10.6757 10.1568 9.84339C9.32489 9.80897 8.52565 9.5101 7.87527 8.99025C7.22488 8.47039 6.75726 7.75664 6.54039 6.95277C5.87945 8.27542 5.52476 9.92152 5.47554 11.8746C5.47349 11.9646 5.44558 12.0521 5.39515 12.1266C5.34473 12.2011 5.27391 12.2596 5.19117 12.295L2.02242 13.6512L5.1357 14.5426C5.21228 14.5645 5.28201 14.6055 5.33833 14.6619C5.39465 14.7182 5.43569 14.7879 5.45758 14.8645L6.34664 17.9778L7.70523 14.809C7.74055 14.7264 7.79887 14.6557 7.87325 14.6052C7.94763 14.5548 8.03493 14.5268 8.12476 14.5246C10.0787 14.4785 11.7232 14.1215 13.0474 13.4598V13.4614ZM17.0318 6.0762C17.0306 5.13276 16.9296 4.1921 16.7302 3.26995C15.8089 3.07068 14.869 2.96959 13.9263 2.96839H13.9068C12.4599 2.96839 10.3912 3.21995 8.6982 4.41136C8.19425 4.76501 7.74289 5.18822 7.35758 5.66839C7.31827 6.10293 7.37523 6.54079 7.5244 6.95081C7.67357 7.36083 7.91128 7.73293 8.22062 8.04063C8.52996 8.34833 8.90332 8.58406 9.31413 8.73105C9.72494 8.87803 10.1631 8.93266 10.5974 8.89105C10.6662 8.88451 10.7356 8.89326 10.8006 8.91667C10.8656 8.94009 10.9247 8.97759 10.9735 9.02649C11.0223 9.07539 11.0597 9.13448 11.083 9.19953C11.1064 9.26458 11.115 9.33398 11.1084 9.40277C11.0668 9.83724 11.1216 10.2755 11.2688 10.6864C11.4159 11.0973 11.6519 11.4707 11.9598 11.78C12.2678 12.0893 12.6402 12.3269 13.0504 12.4759C13.4607 12.6248 13.8987 12.6815 14.3334 12.6418C14.8128 12.2589 15.2355 11.8099 15.5888 11.3082C16.7873 9.60902 17.0357 7.52386 17.0318 6.07464V6.0762Z" fill="#4B5563"/>
</svg>
