<svg width="22" height="20" viewBox="0 0 22 20" fill="none" xmlns="http://www.w3.org/2000/svg">
<rect width="21.5" height="19.6581" transform="translate(0 0.170898)" fill="white"/>
<path fill-rule="evenodd" clip-rule="evenodd" d="M19.5 8.03896L20.282 8.66496C20.4377 8.78627 20.6349 8.84133 20.8309 8.81821C21.0269 8.79508 21.2059 8.69563 21.3291 8.54141C21.4522 8.38719 21.5096 8.19064 21.4888 7.99438C21.4681 7.79811 21.3707 7.61795 21.218 7.49296L13.093 0.992955C12.428 0.460819 11.6017 0.170898 10.75 0.170898C9.89831 0.170898 9.07199 0.460819 8.407 0.992955L0.282 7.49296C0.126583 7.61721 0.0268914 7.79811 0.00485587 7.99587C-0.0171797 8.19363 0.0402461 8.39204 0.1645 8.54746C0.288754 8.70287 0.469658 8.80256 0.667415 8.8246C0.865172 8.84663 1.06358 8.78921 1.219 8.66496L2 8.03896V18.329H0.75C0.551088 18.329 0.360322 18.408 0.21967 18.5486C0.0790177 18.6893 0 18.88 0 19.079C0 19.2779 0.0790177 19.4686 0.21967 19.6093C0.360322 19.7499 0.551088 19.829 0.75 19.829H20.75C20.9489 19.829 21.1397 19.7499 21.2803 19.6093C21.421 19.4686 21.5 19.2779 21.5 19.079C21.5 18.88 21.421 18.6893 21.2803 18.5486C21.1397 18.408 20.9489 18.329 20.75 18.329H19.5V8.03896ZM8 6.57896C8 5.84961 8.28973 5.15014 8.80546 4.63441C9.32118 4.11869 10.0207 3.82896 10.75 3.82896C11.4793 3.82896 12.1788 4.11869 12.6945 4.63441C13.2103 5.15014 13.5 5.84961 13.5 6.57896C13.5 7.3083 13.2103 8.00777 12.6945 8.5235C12.1788 9.03922 11.4793 9.32896 10.75 9.32896C10.0207 9.32896 9.32118 9.03922 8.80546 8.5235C8.28973 8.00777 8 7.3083 8 6.57896ZM10.8 10.329C11.464 10.329 12.037 10.329 12.496 10.391C12.988 10.457 13.459 10.606 13.841 10.988C14.223 11.37 14.372 11.841 14.438 12.333C14.496 12.763 14.5 13.293 14.5 13.906V18.329H13V14.079C13 13.351 12.998 12.879 12.952 12.533C12.908 12.208 12.838 12.106 12.78 12.049C12.722 11.992 12.621 11.921 12.296 11.877C11.949 11.831 11.478 11.829 10.75 11.829C10.022 11.829 9.55 11.831 9.204 11.877C8.879 11.921 8.777 11.992 8.72 12.049C8.663 12.106 8.592 12.208 8.548 12.533C8.502 12.88 8.5 13.351 8.5 14.079V18.329H7V14.029C7 13.365 7 12.792 7.062 12.333C7.128 11.841 7.277 11.37 7.659 10.988C8.041 10.606 8.513 10.457 9.004 10.391C9.463 10.329 10.036 10.329 10.701 10.329H10.8Z" fill="#31A342"/>
</svg>
