<svg width="22" height="20" viewBox="0 0 22 20" fill="none" xmlns="http://www.w3.org/2000/svg">
<path fill-rule="evenodd" clip-rule="evenodd" d="M19.5 7.86806L20.282 8.49406C20.4377 8.61537 20.6349 8.67044 20.8309 8.64731C21.0269 8.62418 21.2059 8.52473 21.3291 8.37051C21.4522 8.21629 21.5096 8.01974 21.4888 7.82348C21.4681 7.62721 21.3707 7.44705 21.218 7.32206L13.093 0.822057C12.428 0.28992 11.6017 0 10.75 0C9.89831 0 9.07199 0.28992 8.407 0.822057L0.282 7.32206C0.126583 7.44631 0.0268914 7.62721 0.00485587 7.82497C-0.0171797 8.02273 0.0402461 8.22114 0.1645 8.37656C0.288754 8.53197 0.469658 8.63167 0.667415 8.6537C0.865172 8.67574 1.06358 8.61831 1.219 8.49406L2 7.86806V18.1581H0.75C0.551088 18.1581 0.360322 18.2371 0.21967 18.3777C0.0790177 18.5184 0 18.7091 0 18.9081C0 19.107 0.0790177 19.2977 0.21967 19.4384C0.360322 19.579 0.551088 19.6581 0.75 19.6581H20.75C20.9489 19.6581 21.1397 19.579 21.2803 19.4384C21.421 19.2977 21.5 19.107 21.5 18.9081C21.5 18.7091 21.421 18.5184 21.2803 18.3777C21.1397 18.2371 20.9489 18.1581 20.75 18.1581H19.5V7.86806ZM8 6.40806C8 5.67871 8.28973 4.97924 8.80546 4.46351C9.32118 3.94779 10.0207 3.65806 10.75 3.65806C11.4793 3.65806 12.1788 3.94779 12.6945 4.46351C13.2103 4.97924 13.5 5.67871 13.5 6.40806C13.5 7.1374 13.2103 7.83688 12.6945 8.3526C12.1788 8.86833 11.4793 9.15806 10.75 9.15806C10.0207 9.15806 9.32118 8.86833 8.80546 8.3526C8.28973 7.83688 8 7.1374 8 6.40806ZM10.8 10.1581C11.464 10.1581 12.037 10.1581 12.496 10.2201C12.988 10.2861 13.459 10.4351 13.841 10.8171C14.223 11.1991 14.372 11.6701 14.438 12.1621C14.496 12.5921 14.5 13.1221 14.5 13.7351V18.1581H13V13.9081C13 13.1801 12.998 12.7081 12.952 12.3621C12.908 12.0371 12.838 11.9351 12.78 11.8781C12.722 11.8211 12.621 11.7501 12.296 11.7061C11.949 11.6601 11.478 11.6581 10.75 11.6581C10.022 11.6581 9.55 11.6601 9.204 11.7061C8.879 11.7501 8.777 11.8211 8.72 11.8781C8.663 11.9351 8.592 12.0371 8.548 12.3621C8.502 12.7091 8.5 13.1801 8.5 13.9081V18.1581H7V13.8581C7 13.1941 7 12.6211 7.062 12.1621C7.128 11.6701 7.277 11.1991 7.659 10.8171C8.041 10.4351 8.513 10.2861 9.004 10.2201C9.463 10.1581 10.036 10.1581 10.701 10.1581H10.8Z" fill="#31A342"/>
</svg>
