<svg width="23" height="18" viewBox="0 0 23 18" fill="none" xmlns="http://www.w3.org/2000/svg">
<path d="M22.2222 3.00098V18.001H0V3.00098H6.94444V1.50098C6.94444 1.29004 6.98061 1.09473 7.05295 0.915039C7.12529 0.735352 7.22295 0.579102 7.34592 0.446289C7.46889 0.313477 7.61719 0.204102 7.7908 0.118164C7.96441 0.0322266 8.14525 -0.00683594 8.33333 0.000976563H13.8889C14.0842 0.000976563 14.265 0.0400391 14.4314 0.118164C14.5978 0.196289 14.7425 0.301758 14.8655 0.43457C14.9884 0.567383 15.0897 0.727539 15.1693 0.915039C15.2488 1.10254 15.285 1.29785 15.2778 1.50098V3.00098H22.2222ZM8.33333 3.00098H13.8889V1.50098H8.33333V3.00098ZM1.38889 4.50098V6.66895L8.33333 10.4072V9.00098H13.8889V10.4072L20.8333 6.66895V4.50098H1.38889ZM9.72222 10.501V12.001H12.5V10.501H9.72222ZM20.8333 16.501V8.33301L13.8889 12.0947V13.501H8.33333V12.0947L1.38889 8.33301V16.501H20.8333Z" fill="#D8D8D8"/>
</svg>
