<svg width="20" height="20" viewBox="0 0 20 20" fill="none" xmlns="http://www.w3.org/2000/svg">
<path d="M9.375 11.667C9.20924 11.667 9.05027 11.6011 8.93306 11.4839C8.81585 11.3667 8.75 11.2078 8.75 11.042C8.75 10.8762 8.81585 10.7173 8.93306 10.6001C9.05027 10.4828 9.20924 10.417 9.375 10.417C9.54076 10.417 9.69973 10.4828 9.81694 10.6001C9.93415 10.7173 10 10.8762 10 11.042C10 11.2078 9.93415 11.3667 9.81694 11.4839C9.69973 11.6011 9.54076 11.667 9.375 11.667Z" fill="#4B5563"/>
<path fill-rule="evenodd" clip-rule="evenodd" d="M3.92875 8.33333C4.00986 8.33333 4.08917 8.32667 4.16667 8.31333V11.6667H3.125C3.06975 11.6667 3.01676 11.6886 2.97769 11.7277C2.93862 11.7668 2.91667 11.8197 2.91667 11.875V12.2917C2.91667 12.3469 2.93862 12.3999 2.97769 12.439C3.01676 12.4781 3.06975 12.5 3.125 12.5H16.875C16.9303 12.5 16.9832 12.4781 17.0223 12.439C17.0614 12.3999 17.0833 12.3469 17.0833 12.2917V11.875C17.0833 11.8197 17.0614 11.7668 17.0223 11.7277C16.9832 11.6886 16.9303 11.6667 16.875 11.6667H15.8333V8.31333C15.9111 8.32667 15.9904 8.33333 16.0713 8.33333C16.8638 8.33333 17.5 7.68667 17.5 6.89625V5.90042C17.5003 5.76826 17.4773 5.63709 17.4321 5.51292L16.5238 3.00875C16.4699 2.8597 16.3713 2.73089 16.2416 2.63985C16.1119 2.54882 15.9572 2.49998 15.7988 2.5H4.20083C4.04244 2.50018 3.88795 2.54916 3.75837 2.64026C3.6288 2.73137 3.53044 2.86018 3.47667 3.00917L2.56833 5.51292C2.52297 5.63707 2.49984 5.76824 2.5 5.90042V6.89625C2.5 7.68667 3.13625 8.33333 3.92875 8.33333ZM3.35167 5.79708L4.24542 3.33333H15.7542L16.6479 5.79708C16.6601 5.83042 16.6663 5.86486 16.6663 5.90042V6.89625C16.6672 7.05524 16.6051 7.20812 16.4935 7.32132C16.3818 7.43452 16.2298 7.49879 16.0708 7.5C15.7458 7.5 15.4758 7.23333 15.4758 6.89625C15.4758 6.78574 15.4319 6.67976 15.3538 6.60162C15.2757 6.52348 15.1697 6.47958 15.0592 6.47958C14.9487 6.47958 14.8427 6.52348 14.7645 6.60162C14.6864 6.67976 14.6425 6.78574 14.6425 6.89625C14.6435 7.05524 14.5814 7.20812 14.4697 7.32132C14.3581 7.43452 14.2061 7.49879 14.0471 7.5C13.7221 7.5 13.4521 7.23333 13.4521 6.89667C13.4521 6.78616 13.4082 6.68018 13.33 6.60204C13.2519 6.5239 13.1459 6.48 13.0354 6.48C12.9249 6.48 12.8189 6.5239 12.7408 6.60204C12.6626 6.68018 12.6188 6.78616 12.6188 6.89667C12.6188 7.23333 12.3488 7.5 12.0233 7.5C11.6979 7.5 11.4283 7.23333 11.4283 6.89625C11.4283 6.78574 11.3844 6.67976 11.3063 6.60162C11.2282 6.52348 11.1222 6.47958 11.0117 6.47958C10.9012 6.47958 10.7952 6.52348 10.717 6.60162C10.6389 6.67976 10.595 6.78574 10.595 6.89625C10.596 7.05517 10.5339 7.20799 10.4224 7.32118C10.3108 7.43437 10.1589 7.49868 10 7.5C9.84109 7.49879 9.68915 7.43458 9.57752 7.32147C9.46589 7.20836 9.4037 7.05558 9.40458 6.89667C9.40458 6.78616 9.36069 6.68018 9.28255 6.60204C9.2044 6.5239 9.09842 6.48 8.98792 6.48C8.87741 6.48 8.77143 6.5239 8.69329 6.60204C8.61515 6.68018 8.57125 6.78616 8.57125 6.89667C8.57125 7.23333 8.30167 7.5 7.97625 7.5C7.65083 7.5 7.38083 7.23333 7.38083 6.89625C7.38083 6.78574 7.33694 6.67976 7.25879 6.60162C7.18066 6.52348 7.07467 6.47958 6.96417 6.47958C6.85366 6.47958 6.74768 6.52348 6.66954 6.60162C6.5914 6.67976 6.5475 6.78574 6.5475 6.89625C6.5475 7.23292 6.27792 7.5 5.9525 7.5C5.62708 7.5 5.35708 7.23333 5.35708 6.89625C5.35708 6.78574 5.31319 6.67976 5.23505 6.60162C5.15691 6.52348 5.05092 6.47958 4.94042 6.47958C4.82991 6.47958 4.72393 6.52348 4.64579 6.60162C4.56765 6.67976 4.52375 6.78574 4.52375 6.89625C4.52375 7.23292 4.25417 7.5 3.92875 7.5C3.60292 7.5 3.33333 7.23333 3.33333 6.89625V5.90042C3.33333 5.86458 3.33945 5.83014 3.35167 5.79708ZM15 7.9675C14.739 8.20352 14.3994 8.33393 14.0475 8.33333C13.8593 8.33365 13.6728 8.29646 13.4991 8.22391C13.3254 8.15137 13.1679 8.04494 13.0358 7.91083C12.9037 8.04499 12.7461 8.15145 12.5723 8.224C12.3986 8.29654 12.2121 8.33371 12.0238 8.33333C11.8355 8.33365 11.6491 8.29646 11.4754 8.22391C11.3017 8.15137 11.1442 8.04494 11.0121 7.91083C10.8799 8.04499 10.7224 8.15145 10.5486 8.224C10.3748 8.29654 10.1883 8.33371 10 8.33333C9.81169 8.33371 9.62519 8.29654 9.45142 8.224C9.27764 8.15145 9.12007 8.04499 8.98792 7.91083C8.85582 8.04494 8.69831 8.15137 8.52461 8.22391C8.35091 8.29646 8.16449 8.33365 7.97625 8.33333C7.58 8.33333 7.22208 8.17125 6.96417 7.91083C6.83207 8.04494 6.67456 8.15137 6.50086 8.22391C6.32716 8.29646 6.14074 8.33365 5.9525 8.33333C5.58583 8.33333 5.2525 8.19458 5 7.9675V11.6667H6.04167C5.98641 11.6667 5.93342 11.6447 5.89435 11.6056C5.85528 11.5666 5.83333 11.5136 5.83333 11.4583V10.625C5.83333 10.5697 5.85528 10.5168 5.89435 10.4777C5.93342 10.4386 5.98641 10.4167 6.04167 10.4167H7.29167C7.34692 10.4167 7.39991 10.4386 7.43898 10.4777C7.47805 10.5168 7.5 10.5697 7.5 10.625V10.8333H8.125C8.18025 10.8333 8.23324 10.8553 8.27231 10.8944C8.31138 10.9334 8.33333 10.9864 8.33333 11.0417V11.4583C8.33333 11.5136 8.31138 11.5666 8.27231 11.6056C8.23324 11.6447 8.18025 11.6667 8.125 11.6667H15V7.9675ZM3.33333 13.75C3.33333 13.6395 3.37723 13.5335 3.45537 13.4554C3.53351 13.3772 3.63949 13.3333 3.75 13.3333H16.25C16.3605 13.3333 16.4665 13.3772 16.5446 13.4554C16.6228 13.5335 16.6667 13.6395 16.6667 13.75V17.0833C16.6667 17.1938 16.6228 17.2998 16.5446 17.378C16.4665 17.4561 16.3605 17.5 16.25 17.5H3.75C3.63949 17.5 3.53351 17.4561 3.45537 17.378C3.37723 17.2998 3.33333 17.1938 3.33333 17.0833V13.75ZM4.16667 16.6667V14.1667H15.8333V16.6667H4.16667Z" fill="#4B5563"/>
</svg>
