<svg width="20" height="20" viewBox="0 0 20 20" fill="none" xmlns="http://www.w3.org/2000/svg">
<path d="M10 14.6292L11.56 11.2955L15 9.75542L11.56 8.23479L10 4.88162L8.43001 8.23479L5.00001 9.75542L8.43001 11.2955L10 14.6292ZM6.17001 0.748631C7.38508 0.2612 8.68606 0.00955881 10 0.0078125C11.31 0.0078125 12.61 0.26125 13.83 0.748631C15.04 1.23601 16.14 1.95733 17.07 2.86386C18 3.77039 18.74 4.84263 19.24 6.02209C19.74 7.21129 20 8.47848 20 9.75542C20 12.3385 18.95 14.8242 17.07 16.647C16.1426 17.5535 15.0406 18.2725 13.8273 18.7626C12.614 19.2527 11.3134 19.5043 10 19.503C8.68606 19.5013 7.38508 19.2496 6.17001 18.7622C4.95807 18.2712 3.85714 17.5525 2.93001 16.647C2.00002 15.743 1.26244 14.6688 0.759617 13.4862C0.256795 12.3035 -0.00135141 11.0356 5.32016e-06 9.75542C5.32016e-06 7.1723 1.05001 4.68666 2.93001 2.86386C3.86001 1.95733 4.96001 1.23601 6.17001 0.748631ZM4.34001 15.2726C5.84001 16.7347 7.88001 17.5535 10 17.5535C12.12 17.5535 14.16 16.7347 15.66 15.2726C17.16 13.8104 18 11.8219 18 9.75542C18 7.68893 17.16 5.70041 15.66 4.23827C14.9165 3.51434 14.034 2.9403 13.0628 2.54892C12.0916 2.15755 11.0509 1.95653 10 1.95733C7.88001 1.95733 5.84001 2.77613 4.34001 4.23827C3.59733 4.96301 3.00842 5.82327 2.60691 6.76992C2.20541 7.71657 1.99918 8.73106 2.00001 9.75542C2.00001 11.8219 2.84001 13.8104 4.34001 15.2726Z" fill="black"/>
</svg>
