<svg width="26" height="26" viewBox="0 0 26 26" fill="none" xmlns="http://www.w3.org/2000/svg">
<path d="M17.3608 20.3846V21.3077C17.3608 22.287 16.9014 23.2261 16.0838 23.9185C15.2661 24.611 14.1571 25 13.0008 25C11.8445 25 10.7355 24.611 9.91787 23.9185C9.10022 23.2261 8.64087 22.287 8.64087 21.3077V20.3846M24.6964 18.5056C22.9469 16.6923 21.7118 15.7692 21.7118 10.7702C21.7118 6.19231 18.9514 4.56135 16.6795 3.76923C16.3777 3.66423 16.0936 3.42308 16.0017 3.16058C15.6032 2.01192 14.4859 1 13.0008 1C11.5157 1 10.3978 2.0125 10.0034 3.16173C9.91139 3.42712 9.62731 3.66423 9.32552 3.76923C7.05086 4.5625 4.2932 6.18769 4.2932 10.7702C4.28979 15.7692 3.0547 16.6923 1.30528 18.5056C0.580437 19.2567 1.21535 20.3846 2.48314 20.3846H23.5253C24.7863 20.3846 25.4171 19.2533 24.6964 18.5056Z" stroke="white" stroke-width="1.5" stroke-linecap="round" stroke-linejoin="round"/>
</svg>
