<svg width="20" height="16" viewBox="0 0 20 16" fill="none" xmlns="http://www.w3.org/2000/svg">
<path d="M18 11.75C17.6267 11.75 17.3333 11.475 17.3333 11.125C17.3333 10.775 17.6267 10.5 18 10.5C18.3733 10.5 18.6667 10.225 18.6667 9.875C18.6667 9.0462 18.3155 8.25134 17.6904 7.66529C17.0652 7.07924 16.2174 6.75 15.3333 6.75H14C13.6267 6.75 13.3333 6.475 13.3333 6.125C13.3333 5.775 13.6267 5.5 14 5.5C15.1067 5.5 16 4.6625 16 3.625C16 2.5875 15.1067 1.75 14 1.75C13.6267 1.75 13.3333 1.475 13.3333 1.125C13.3333 0.775 13.6267 0.5 14 0.5C14.8841 0.5 15.7319 0.82924 16.357 1.41529C16.9821 2.00134 17.3333 2.7962 17.3333 3.625C17.3333 4.4 17.04 5.1 16.5333 5.65C18.52 6.15 20 7.85 20 9.875C20 10.9125 19.1067 11.75 18 11.75ZM2 11.75C0.893333 11.75 0 10.9125 0 9.875C0 7.85 1.46667 6.15 3.46667 5.65C2.97333 5.1 2.66667 4.4 2.66667 3.625C2.66667 2.7962 3.01786 2.00134 3.64298 1.41529C4.2681 0.82924 5.11595 0.5 6 0.5C6.37333 0.5 6.66667 0.775 6.66667 1.125C6.66667 1.475 6.37333 1.75 6 1.75C4.89333 1.75 4 2.5875 4 3.625C4 4.6625 4.89333 5.5 6 5.5C6.37333 5.5 6.66667 5.775 6.66667 6.125C6.66667 6.475 6.37333 6.75 6 6.75H4.66667C3.78261 6.75 2.93477 7.07924 2.30964 7.66529C1.68452 8.25134 1.33333 9.0462 1.33333 9.875C1.33333 10.225 1.62667 10.5 2 10.5C2.37333 10.5 2.66667 10.775 2.66667 11.125C2.66667 11.475 2.37333 11.75 2 11.75ZM14 15.5H6C4.89333 15.5 4 14.6625 4 13.625V12.375C4 9.9625 6.09333 8 8.66667 8H11.3333C13.9067 8 16 9.9625 16 12.375V13.625C16 14.6625 15.1067 15.5 14 15.5ZM8.66667 9.25C7.78261 9.25 6.93477 9.57924 6.30964 10.1653C5.68452 10.7513 5.33333 11.5462 5.33333 12.375V13.625C5.33333 13.975 5.62667 14.25 6 14.25H14C14.3733 14.25 14.6667 13.975 14.6667 13.625V12.375C14.6667 11.5462 14.3155 10.7513 13.6904 10.1653C13.0652 9.57924 12.2174 9.25 11.3333 9.25H8.66667Z" fill="#2D3633"/>
</svg>
