<svg width="28" height="28" viewBox="0 0 28 28" fill="none" xmlns="http://www.w3.org/2000/svg">
<g clip-path="url(#clip0_1993_1611)">
<path d="M16.9416 22.2242C16.6476 22.1172 16.3138 21.9957 16.1386 22.05C15.8882 22.1985 15.6825 22.4119 15.5433 22.6676L15.5465 22.6612C15.369 22.9526 15.1309 23.2025 14.8482 23.3936L14.8398 23.3991L14.8325 23.403C14.7397 23.4519 14.6385 23.4828 14.5342 23.4941L14.5394 23.4932C14.0985 23.537 13.7285 23.1984 13.3722 22.8695C13.1857 22.6565 12.9493 22.4929 12.6842 22.3933L12.6865 22.394C12.5264 22.4004 12.3712 22.4507 12.2377 22.5394L12.2407 22.5378C12.1335 22.5954 12.024 22.6627 11.9144 22.73C11.796 22.8043 11.6785 22.8731 11.5618 22.9364C11.4295 23.0242 11.2811 23.0851 11.1253 23.1155C10.9694 23.146 10.8091 23.1454 10.6535 23.1138L10.6557 23.1145C10.4519 23.0117 10.2719 22.8672 10.1274 22.6905C9.9828 22.5139 9.87689 22.3088 9.81645 22.0887L9.82011 22.099C9.72819 21.8249 9.56853 21.5784 9.35595 21.3825L9.3648 21.3919C9.09343 21.3289 8.81074 21.3336 8.5416 21.4055L8.53013 21.4088C8.05103 21.4854 7.55449 21.5647 7.21262 21.2838C7.06568 21.1123 6.95613 20.9119 6.89097 20.6956C6.8258 20.4793 6.80645 20.2518 6.83415 20.0276L6.83358 20.0336C6.85211 19.7462 6.7977 19.4589 6.67541 19.1982L6.67344 19.1945C6.55706 19.0517 6.21202 18.9693 5.9079 18.8962C5.43337 18.784 4.94264 18.6663 4.73016 18.2705C4.51768 17.8748 4.69067 17.4007 4.85737 16.9414C4.96439 16.6475 5.08591 16.3136 5.0316 16.1385C4.87942 15.8906 4.66677 15.6855 4.4136 15.5424L4.42043 15.5463C4.21781 15.4442 4.0388 15.3009 3.89492 15.1255C3.75105 14.9501 3.6455 14.7465 3.58508 14.5278L3.58873 14.5381C3.54495 14.0972 3.88352 13.7272 4.21243 13.3709C4.43453 13.175 4.59284 12.9396 4.68825 12.6822L4.68757 12.6845C4.64215 12.3994 4.52346 12.131 4.34313 11.9056L4.34933 11.9136C4.20104 11.7411 4.0902 11.5397 4.02386 11.3221C3.95752 11.1046 3.93711 10.8756 3.96393 10.6497L3.96336 10.6557C4.02366 10.5085 4.11242 10.3747 4.22456 10.2619C4.33669 10.1491 4.46999 10.0595 4.61682 9.99836L4.61241 10.0007C4.72988 9.93765 4.85457 9.87922 4.97926 9.82078C5.09588 9.76668 5.21249 9.71258 5.31968 9.65502C5.46782 9.59224 5.59578 9.48982 5.68949 9.35904L5.68627 9.3636C5.74714 9.09824 5.74562 8.8153 5.67201 8.5408L5.66869 8.52934C5.59284 8.04984 5.51351 7.5533 5.79363 7.21182C5.85861 7.1316 5.93944 7.06566 6.03108 7.01812L6.03916 7.01378L6.03842 7.01418C6.37627 6.87534 6.72023 6.81835 7.05767 6.83201L7.04463 6.83239C7.33144 6.85796 7.6198 6.80484 7.87867 6.67873L7.8816 6.67716C8.02437 6.56077 8.10678 6.21574 8.17995 5.91161C8.29617 5.43398 8.41459 4.94286 8.81033 4.73038C9.20606 4.5179 9.68012 4.69089 10.1399 4.85833C10.4338 4.96535 10.7677 5.08687 10.9428 5.03255C11.1927 4.88315 11.3981 4.66967 11.5377 4.41422L11.5338 4.42104C11.7106 4.12876 11.9493 3.87884 12.2332 3.68894L12.2416 3.68347L12.249 3.67953C12.3452 3.62851 12.4446 3.59815 12.5472 3.58845L12.542 3.58935C12.9829 3.54556 13.3529 3.88414 13.7092 4.21304C13.9051 4.43514 14.1401 4.59272 14.3972 4.68926L14.3949 4.68858C14.5553 4.68197 14.7106 4.63098 14.8436 4.54129L14.8407 4.54287C14.9479 4.48531 15.0574 4.418 15.1673 4.35141C15.2857 4.27937 15.404 4.20732 15.52 4.14503C15.6524 4.05706 15.8008 3.99607 15.9568 3.96556C16.1128 3.93504 16.2732 3.9356 16.429 3.9672L16.4267 3.96652C16.6305 4.06948 16.8104 4.214 16.9548 4.39076C17.0992 4.56752 17.205 4.7726 17.2653 4.99275L17.2617 4.98242C17.3535 5.25662 17.5135 5.50302 17.7266 5.69852L17.7181 5.68982C17.9831 5.75183 18.2668 5.7499 18.5409 5.67556L18.5524 5.67224C19.0319 5.59639 19.5284 5.51706 19.8699 5.79718C20.0165 5.96893 20.1258 6.16921 20.1911 6.38537C20.2564 6.60152 20.2761 6.82887 20.2491 7.05304L20.2496 7.04706C20.2299 7.33296 20.2827 7.61922 20.4033 7.87923L20.4056 7.88363C20.522 8.0264 20.867 8.10881 21.1712 8.18198C21.6499 8.29667 22.1406 8.41437 22.3531 8.8101C22.5656 9.20583 22.393 9.68063 22.2255 10.1404C22.1185 10.4343 21.9966 10.7674 22.0513 10.9433C22.2105 11.2011 22.4248 11.4011 22.6697 11.5401L22.6625 11.5355C22.8649 11.6375 23.0438 11.7807 23.1876 11.956C23.3314 12.1313 23.4369 12.3347 23.4974 12.5532L23.4938 12.5429C23.5387 12.9841 23.199 13.3538 22.8701 13.7101C22.6568 13.8967 22.4933 14.1334 22.3942 14.3988L22.3949 14.3966C22.4403 14.6816 22.559 14.95 22.7394 15.1755L22.7332 15.1674C22.8813 15.3399 22.992 15.5412 23.0583 15.7586C23.1245 15.976 23.1449 16.2049 23.1182 16.4306L23.1187 16.4246C23.0587 16.5718 22.9703 16.7058 22.8584 16.8188C22.7465 16.9318 22.6134 17.0215 22.4668 17.083L22.4712 17.0806C22.3537 17.1437 22.2291 17.2021 22.1044 17.2606C21.9893 17.3126 21.8758 17.3679 21.7639 17.4263C21.6158 17.4891 21.4878 17.5915 21.3941 17.7223L21.3974 17.7178C21.335 17.9891 21.3399 18.2716 21.4116 18.5406L21.4149 18.552C21.4908 19.0315 21.5701 19.5281 21.29 19.8695C21.225 19.9498 21.1442 20.0157 21.0525 20.0632L21.0445 20.0676C20.7219 20.2008 20.375 20.2622 20.0263 20.2482L20.0386 20.2482C19.7518 20.223 19.4636 20.2763 19.205 20.4026L19.202 20.4042C19.0593 20.5206 18.9768 20.8656 18.9037 21.1698C18.7863 21.647 18.6686 22.1378 18.2722 22.3506C17.8757 22.5635 17.4016 22.3905 16.9416 22.2242ZM13.3054 9.23012L13.2184 17.6647C13.2182 17.6887 13.2242 17.7124 13.2358 17.7334C13.2475 17.7543 13.2644 17.7719 13.285 17.7844C13.3055 17.7968 13.3289 17.8037 13.3529 17.8044C13.3769 17.8051 13.4007 17.7995 13.4218 17.7882L14.0437 17.4543C14.0656 17.443 14.0839 17.4259 14.0966 17.4049C14.1094 17.3838 14.116 17.3597 14.1159 17.3351L14.197 8.9018C14.1972 8.87779 14.1912 8.85413 14.1795 8.83315C14.1679 8.81217 14.1509 8.79459 14.1304 8.78214C14.1099 8.76968 14.0865 8.76278 14.0625 8.76212C14.0385 8.76145 14.0147 8.76704 13.9935 8.77834L13.3775 9.10909C13.356 9.1211 13.338 9.13852 13.3253 9.15961C13.3126 9.18071 13.306 9.20549 13.3054 9.23012ZM14.5818 12.8475C14.53 12.9747 14.5069 13.1118 14.5141 13.249C14.5214 13.3862 14.5589 13.5201 14.6239 13.6412L15.5704 15.404C15.706 15.6565 15.9431 15.8196 16.204 15.8706L16.2063 15.8712C16.4786 15.9274 16.7732 15.8913 17.0397 15.7482C17.3062 15.6051 17.4987 15.3788 17.6034 15.1192L17.6027 15.1215C17.7062 14.8739 17.7012 14.5862 17.5656 14.3336L16.6195 12.5715C16.4839 12.319 16.2483 12.1532 15.9887 12.0978L15.9868 12.0978C15.7109 12.0307 15.42 12.068 15.17 12.2025L15.1472 12.2147L15.1487 12.2139L15.1259 12.2262C14.8749 12.3605 14.6816 12.582 14.5826 12.849L14.5837 12.8474L14.5818 12.8475ZM9.76799 11.3584C9.71617 11.4856 9.69307 11.6227 9.70036 11.7599C9.70764 11.8971 9.74512 12.031 9.81012 12.152L10.7562 13.9141C10.8922 14.1674 11.1293 14.3324 11.3914 14.3836L11.3937 14.3843C11.6672 14.4427 11.9633 14.4076 12.2305 14.2641C12.4978 14.1206 12.691 13.8921 12.7937 13.6307L12.793 13.6329C12.8973 13.3831 12.8922 13.0936 12.7554 12.8388L11.8116 11.0811C11.6748 10.8264 11.4378 10.6614 11.1745 10.6079L11.1726 10.608C10.8869 10.5462 10.5885 10.5884 10.3311 10.7268C10.0736 10.8652 9.87388 11.0908 9.76776 11.3632L9.76844 11.361L9.76799 11.3584ZM16.4586 15.05C16.436 15.0461 16.4146 15.037 16.3961 15.0235C16.3775 15.0101 16.3623 14.9925 16.3516 14.9722L15.4051 13.2094C15.3822 13.1668 15.382 13.1187 15.3991 13.0783C15.4203 13.0253 15.459 12.9812 15.5088 12.9532L15.5183 12.9481L15.5176 12.9485L15.5264 12.9438C15.5771 12.9173 15.6355 12.909 15.6916 12.9203C15.7141 12.9242 15.7353 12.9332 15.7538 12.9465C15.7723 12.9599 15.7875 12.9773 15.7982 12.9974L16.7451 14.7609C16.756 14.7809 16.7622 14.803 16.7633 14.8257C16.7643 14.8485 16.7602 14.8711 16.7512 14.892C16.7289 14.9456 16.6877 14.9923 16.632 15.0222C16.5762 15.0522 16.5145 15.0607 16.4564 15.0493L16.4571 15.0489L16.4586 15.05ZM11.6482 13.56C11.626 13.5551 11.605 13.5456 11.5866 13.5322C11.5682 13.5188 11.5527 13.5018 11.5412 13.4822L10.595 11.7202C10.5722 11.6776 10.5719 11.6295 10.5886 11.5884C10.6109 11.5348 10.652 11.4881 10.7078 11.4581C10.7636 11.4282 10.8253 11.4197 10.8834 11.431C10.906 11.4349 10.9267 11.4444 10.9452 11.4579C10.9638 11.4714 10.979 11.4889 10.9897 11.5092L11.9362 13.272C11.9462 13.2924 11.9519 13.3146 11.953 13.3372C11.9541 13.3599 11.9506 13.3826 11.9426 13.4038C11.9203 13.4574 11.8792 13.5041 11.8234 13.534C11.7676 13.564 11.706 13.5725 11.6478 13.5612L11.6482 13.56Z" fill="#FA9D2B"/>
</g>
<defs>
<clipPath id="clip0_1993_1611">
<rect width="20" height="20" fill="white" transform="translate(0 9.46094) rotate(-28.2328)"/>
</clipPath>
</defs>
</svg>
