<svg width="20" height="20" viewBox="0 0 20 20" fill="none" xmlns="http://www.w3.org/2000/svg">
<path fill-rule="evenodd" clip-rule="evenodd" d="M7.85869 3.48074C7.62203 4.03574 7.60286 4.74616 7.62661 5.41699H15.4162C15.6462 5.41699 15.8354 5.60449 15.8091 5.83283C15.6487 7.23491 14.6845 8.45491 13.2816 9.20658C13.317 9.37033 13.3329 9.53908 13.3329 9.70991C13.3329 10.4678 12.7591 11.0662 12.1458 11.4462C11.7399 11.6948 11.2966 11.8761 10.8329 11.9832V11.122C11.1402 11.0334 11.4344 10.9041 11.7074 10.7374C12.2399 10.4078 12.4995 10.0278 12.4995 9.70991C12.4995 9.65852 12.4976 9.60908 12.4937 9.56158C11.8699 9.79366 11.1854 9.94158 10.4641 9.98616V13.3337H9.63078V9.99116C6.75661 9.85033 4.44661 8.07449 4.18994 5.83283C4.16369 5.60449 4.35244 5.41699 4.58286 5.41699H6.79286C6.76911 4.73658 6.78411 3.87616 7.09203 3.15408C7.26869 2.73949 7.54619 2.35824 7.97244 2.08491C8.39744 1.81283 8.93786 1.66699 9.60703 1.66699C10.4266 1.66699 11.0933 1.96449 11.547 2.25283C11.7749 2.39741 11.9533 2.54241 12.0762 2.65241C12.1435 2.71294 12.2082 2.77619 12.2704 2.84199L12.2745 2.84616L12.2754 2.84783L12.2762 2.84824C12.2762 2.84824 12.2762 2.84908 11.9704 3.12033L12.2766 2.84908C12.3476 2.93203 12.3831 3.03951 12.3757 3.14842C12.3682 3.25732 12.3183 3.35895 12.2367 3.43145C12.1551 3.50394 12.0483 3.54151 11.9393 3.53608C11.8302 3.53065 11.7277 3.48266 11.6537 3.40241L11.6495 3.39783L11.6254 3.37283C11.5912 3.33848 11.556 3.30513 11.5199 3.27283C11.3886 3.15639 11.2483 3.0505 11.1004 2.95616C10.7337 2.72366 10.2216 2.50033 9.60703 2.50033C9.05869 2.50033 8.68411 2.61866 8.42244 2.78616C8.16244 2.95283 7.98286 3.18908 7.85869 3.48074ZM5.12703 6.25033C5.61661 7.81699 7.48828 9.16699 9.99953 9.16699C12.5108 9.16699 14.3829 7.81699 14.872 6.25033H5.12703Z" fill="#4B5563"/>
<path d="M6.66602 17.5003V18.3336H13.3327V17.5003H12.0748C12.3498 17.162 12.4993 16.7357 12.4993 16.2503C12.4993 15.6066 12.236 15.067 11.7673 14.6986C11.3089 14.3391 10.6889 14.167 9.99935 14.167C9.38143 14.167 8.83268 14.1128 8.44977 13.9424C8.26602 13.8607 8.13852 13.7599 8.0556 13.6416C7.97477 13.5261 7.91602 13.3649 7.91602 13.1249C7.91602 12.8857 7.97435 12.7249 8.0556 12.6091C8.13852 12.4907 8.26602 12.3899 8.44977 12.3082C8.64852 12.2199 8.89143 12.1624 9.16602 12.1282V11.2891C8.79352 11.3291 8.42852 11.4057 8.11143 11.5466C7.82643 11.6732 7.56352 11.8591 7.37268 12.1311C7.18018 12.4061 7.08268 12.7399 7.08268 13.1253C7.08268 13.5107 7.18018 13.8445 7.37268 14.1195C7.56352 14.3916 7.82685 14.5774 8.11143 14.7041C8.6656 14.9503 9.36727 14.9999 9.99935 14.9999C10.5602 14.9999 10.981 15.1407 11.2523 15.3541C11.5127 15.5582 11.666 15.8524 11.666 16.2499C11.666 16.6482 11.5127 16.942 11.2523 17.1466C11.0618 17.2961 10.7981 17.4099 10.4639 17.4645V15.8336H9.6306V17.5003H6.66602Z" fill="#4B5563"/>
</svg>
