<svg width="22" height="22" viewBox="0 0 22 22" fill="none" xmlns="http://www.w3.org/2000/svg">
<path d="M11 18.7339C9.668 19.4075 7.917 19.8169 6 19.8169C4.934 19.8169 3.92 19.6902 3 19.4628C2.409 19.3155 2.113 19.2429 1.759 18.9386C1.52733 18.7238 1.33558 18.4632 1.194 18.1707C1 17.7299 1 17.301 1 16.4443V4.77746C1 3.71064 2.04 2.97848 3 3.21676C3.92 3.4442 4.934 3.57092 6 3.57092C7.917 3.57092 9.668 3.16152 11 2.48785C12.332 1.81418 14.083 1.40479 16 1.40479C17.066 1.40479 18.08 1.5315 19 1.75895C19.591 1.90625 19.887 1.97989 20.241 2.28315C20.443 2.45644 20.695 2.79869 20.806 3.05105C21 3.49294 21 3.92075 21 4.77746V10.6109M17.5 20.9V13.3185M14 17.1093H21" stroke="#2D3633" stroke-width="1.5" stroke-linecap="round" stroke-linejoin="round"/>
<path d="M4.5 11.6941V11.7038M13.5 10.611C13.5 11.3291 13.2366 12.0178 12.7678 12.5256C12.2989 13.0334 11.663 13.3187 11 13.3187C10.337 13.3187 9.70107 13.0334 9.23223 12.5256C8.76339 12.0178 8.5 11.3291 8.5 10.611C8.5 9.89287 8.76339 9.20416 9.23223 8.69638C9.70107 8.18859 10.337 7.90332 11 7.90332C11.663 7.90332 12.2989 8.18859 12.7678 8.69638C13.2366 9.20416 13.5 9.89287 13.5 10.611Z" stroke="#2D3633" stroke-width="1.5" stroke-linecap="round" stroke-linejoin="round"/>
</svg>
