<svg width="24" height="25" viewBox="0 0 24 25" fill="none" xmlns="http://www.w3.org/2000/svg">
<path d="M19 12.5C19 12.2348 19.1054 11.9804 19.2929 11.7929C19.4804 11.6054 19.7348 11.5 20 11.5H20.01C20.2752 11.5 20.5296 11.6054 20.7171 11.7929C20.9046 11.9804 21.01 12.2348 21.01 12.5C21.01 12.7652 20.9046 13.0196 20.7171 13.2071C20.5296 13.3946 20.2752 13.5 20.01 13.5H20C19.7348 13.5 19.4804 13.3946 19.2929 13.2071C19.1054 13.0196 19 12.7652 19 12.5Z" fill="#2D3633"/>
<path fill-rule="evenodd" clip-rule="evenodd" d="M18.6 4.5H3.4C2.76348 4.5 2.15303 4.75286 1.70294 5.20294C1.25286 5.65303 1 6.26348 1 6.9V18.1C1 18.7365 1.25286 19.347 1.70294 19.7971C2.15303 20.2471 2.76348 20.5 3.4 20.5H18.6C19.2365 20.5 19.847 20.2471 20.2971 19.7971C20.7471 19.347 21 18.7365 21 18.1V16.5H21.4C22.0896 16.5 22.7509 16.2261 23.2385 15.7385C23.7261 15.2509 24 14.5896 24 13.9V11.1C24 10.7586 23.9327 10.4205 23.8021 10.105C23.6714 9.78958 23.4799 9.50295 23.2385 9.26152C22.997 9.02009 22.7104 8.82858 22.395 8.69791C22.0795 8.56725 21.7414 8.5 21.4 8.5H21V6.9C21 6.26348 20.7471 5.65303 20.2971 5.20294C19.847 4.75286 19.2365 4.5 18.6 4.5ZM16.6 10.5C16.4409 10.5 16.2883 10.5632 16.1757 10.6757C16.0632 10.7883 16 10.9409 16 11.1V13.9C16 14.0591 16.0632 14.2117 16.1757 14.3243C16.2883 14.4368 16.4409 14.5 16.6 14.5H21.4C21.5591 14.5 21.7117 14.4368 21.8243 14.3243C21.9368 14.2117 22 14.0591 22 13.9V11.1C22 10.9409 21.9368 10.7883 21.8243 10.6757C21.7117 10.5632 21.5591 10.5 21.4 10.5H16.6Z" fill="#31A342"/>
</svg>
