<svg width="20" height="21" viewBox="0 0 20 21" fill="none" xmlns="http://www.w3.org/2000/svg">
<path fill-rule="evenodd" clip-rule="evenodd" d="M6.33464 1.72143C6.62115 1.13158 7.23819 0.72168 7.95346 0.72168H12.0466C12.7608 0.72168 13.3778 1.13158 13.6654 1.72143C14.3643 1.72743 14.9097 1.75843 15.3968 1.94438C15.9782 2.1666 16.4839 2.54424 16.8559 3.03411C17.2315 3.52699 17.4075 4.16083 17.65 5.03162L17.6879 5.16759L18.2916 7.33406C18.6941 7.53249 19.047 7.81512 19.3251 8.16185C19.9616 8.95866 20.0741 9.90742 19.9616 10.9952C19.8511 12.0509 19.5113 13.3806 19.0857 15.0452L19.058 15.1501C18.7889 16.2029 18.5699 17.0577 18.311 17.7245C18.0388 18.4203 17.695 18.9902 17.1271 19.4231C16.5602 19.856 15.9104 20.0429 15.1542 20.1329C14.4287 20.2169 13.5272 20.2169 12.417 20.2169H7.58303C6.47278 20.2169 5.57025 20.2169 4.84577 20.1319C4.08855 20.0439 3.4398 19.856 2.87188 19.4221C2.30499 18.9902 1.96117 18.4203 1.68897 17.7245C1.42906 17.0577 1.21111 16.2029 0.941984 15.1501L0.914356 15.0452C0.488674 13.3806 0.147924 12.0509 0.0384337 10.9962C-0.0741264 9.90642 0.0384335 8.95866 0.673887 8.16185C0.963473 7.79994 1.31036 7.53201 1.70739 7.33406L2.31112 5.16759L2.35001 5.03162C2.59253 4.16083 2.76853 3.52699 3.14407 3.03311C3.51626 2.54361 4.02193 2.16632 4.60326 1.94438C5.09034 1.75843 5.63472 1.72643 6.33464 1.72143ZM6.33566 3.22406C5.65825 3.23106 5.38709 3.25606 5.16197 3.34204C4.84881 3.46169 4.57646 3.66507 4.37609 3.92889C4.196 4.16583 4.08957 4.49675 3.79283 5.56349L3.43059 6.85917C4.49274 6.72021 5.86393 6.72021 7.56666 6.72021H12.4323C14.1361 6.72021 15.5073 6.72021 16.5684 6.85917L16.2072 5.56249C15.9094 4.49575 15.804 4.16483 15.6239 3.92789C15.4235 3.66407 15.1512 3.46069 14.838 3.34104C14.6129 3.25506 14.3407 3.23006 13.6633 3.22307C13.5179 3.52165 13.2888 3.77386 13.0027 3.95045C12.7165 4.12704 12.385 4.22078 12.0466 4.22082H7.95346C7.615 4.22078 7.28349 4.12704 6.99734 3.95045C6.71119 3.77386 6.48212 3.52165 6.33668 3.22307M7.95346 2.22131C7.88561 2.22131 7.82054 2.24764 7.77257 2.29452C7.72459 2.34139 7.69764 2.40496 7.69764 2.47125C7.69764 2.53754 7.72459 2.60111 7.77257 2.64798C7.82054 2.69486 7.88561 2.72119 7.95346 2.72119H12.0466C12.1144 2.72119 12.1795 2.69486 12.2274 2.64798C12.2754 2.60111 12.3024 2.53754 12.3024 2.47125C12.3024 2.40496 12.2754 2.34139 12.2274 2.29452C12.1795 2.24764 12.1144 2.22131 12.0466 2.22131H7.95346ZM3.55338 8.3558C2.6222 8.48777 2.17094 8.72771 1.88544 9.08563C1.59893 9.44254 1.47102 9.92742 1.56618 10.8432C1.66339 11.779 1.97549 13.0027 2.41959 14.7422C2.70406 15.85 2.90053 16.6178 3.12565 17.1916C3.34054 17.7455 3.55236 18.0384 3.81841 18.2414C4.08344 18.4433 4.42521 18.5723 5.02894 18.6433C5.65314 18.7163 6.46152 18.7173 7.63215 18.7173H12.3699C13.5395 18.7173 14.3499 18.7163 14.9731 18.6433C15.5768 18.5733 15.9186 18.4433 16.1836 18.2414C16.4497 18.0384 16.6605 17.7455 16.8774 17.1916C17.1005 16.6178 17.298 15.85 17.5814 14.7422C18.0266 13.0027 18.3387 11.779 18.4349 10.8432C18.531 9.92742 18.4021 9.44154 18.1166 9.08463C17.8311 8.72771 17.3799 8.48777 16.4477 8.3558C15.496 8.22184 14.2046 8.21984 12.3699 8.21984H7.63215C5.79742 8.21984 4.50605 8.22184 3.5544 8.3558" fill="#2D3633"/>
</svg>
