<svg width="20" height="20" viewBox="0 0 20 20" fill="none" xmlns="http://www.w3.org/2000/svg">
<path d="M6 8.95421C6 8.69569 6.10536 8.44776 6.29289 8.26495C6.48043 8.08215 6.73478 7.97945 7 7.97945H13C13.2652 7.97945 13.5196 8.08215 13.7071 8.26495C13.8946 8.44776 14 8.69569 14 8.95421C14 9.21274 13.8946 9.46067 13.7071 9.64347C13.5196 9.82627 13.2652 9.92897 13 9.92897H7C6.73478 9.92897 6.48043 9.82627 6.29289 9.64347C6.10536 9.46067 6 9.21274 6 8.95421ZM7 11.8785C6.73478 11.8785 6.48043 11.9812 6.29289 12.164C6.10536 12.3468 6 12.5947 6 12.8533C6 13.1118 6.10536 13.3597 6.29289 13.5425C6.48043 13.7253 6.73478 13.828 7 13.828H11C11.2652 13.828 11.5196 13.7253 11.7071 13.5425C11.8946 13.3597 12 13.1118 12 12.8533C12 12.5947 11.8946 12.3468 11.7071 12.164C11.5196 11.9812 11.2652 11.8785 11 11.8785H7ZM1.12671e-06 9.92897C0.000502681 7.79191 0.721484 5.71422 2.05199 4.01568C3.38249 2.31714 5.24877 1.09187 7.3636 0.528455C9.47844 -0.0349606 11.7246 0.094699 13.7565 0.897479C15.7883 1.70026 17.4932 3.13167 18.6087 4.97141C19.7243 6.81115 20.1886 8.95725 19.9304 11.0794C19.6721 13.2016 18.7055 15.1823 17.1794 16.7166C15.6533 18.2508 13.6521 19.2537 11.484 19.5709C9.31588 19.888 7.10092 19.5018 5.18 18.4718L1.292 19.6259C1.11858 19.6774 0.934066 19.682 0.758187 19.6391C0.582309 19.5963 0.421685 19.5076 0.293496 19.3827C0.165308 19.2577 0.074377 19.1012 0.0304305 18.9297C-0.0135161 18.7583 -0.00882534 18.5784 0.044001 18.4094L1.228 14.6137C0.42153 13.1774 -0.000796137 11.5663 1.12671e-06 9.92897ZM10 2.13089C8.57988 2.13077 7.18532 2.49914 5.95956 3.19817C4.7338 3.89719 3.72102 4.90166 3.02526 6.10842C2.32949 7.31518 1.97581 8.68072 2.00054 10.0648C2.02528 11.4489 2.42754 12.8016 3.166 13.984C3.23931 14.1014 3.28629 14.2327 3.30387 14.3691C3.32145 14.5055 3.30923 14.644 3.268 14.7755L2.502 17.2299L5.016 16.4833C5.15132 16.4431 5.29384 16.4313 5.43416 16.4488C5.57448 16.4663 5.70939 16.5126 5.83 16.5846C6.88436 17.2121 8.07347 17.5931 9.30414 17.6976C10.5348 17.8022 11.7736 17.6275 12.9234 17.1873C14.0732 16.747 15.1029 16.0532 15.9316 15.1602C16.7603 14.2672 17.3656 13.1993 17.7 12.0401C18.0344 10.8809 18.0889 9.66197 17.8592 8.47882C17.6295 7.29567 17.1218 6.18045 16.3759 5.22056C15.63 4.26068 14.6662 3.48221 13.56 2.94617C12.4538 2.41013 11.2353 2.13108 10 2.13089Z" fill="#2D3633"/>
</svg>
