<svg width="44" height="44" viewBox="0 0 44 44" fill="none" xmlns="http://www.w3.org/2000/svg">
<path d="M22 27.5C23.4587 27.5 24.8576 26.9205 25.8891 25.8891C26.9205 24.8576 27.5 23.4587 27.5 22C27.5 20.5413 26.9205 19.1424 25.8891 18.1109C24.8576 17.0795 23.4587 16.5 22 16.5C20.5413 16.5 19.1424 17.0795 18.1109 18.1109C17.0795 19.1424 16.5 20.5413 16.5 22C16.5 23.4587 17.0795 24.8576 18.1109 25.8891C19.1424 26.9205 20.5413 27.5 22 27.5Z" fill="#31A342"/>
<path fill-rule="evenodd" clip-rule="evenodd" d="M22 5.5C22.4862 5.5 22.9525 5.69315 23.2964 6.03697C23.6402 6.38079 23.8333 6.8471 23.8333 7.33333V9.295C26.5764 9.69029 29.1178 10.9629 31.0774 12.9226C33.0371 14.8822 34.3097 17.4236 34.705 20.1667H36.6667C37.1529 20.1667 37.6192 20.3598 37.963 20.7036C38.3068 21.0475 38.5 21.5138 38.5 22C38.5 22.4862 38.3068 22.9525 37.963 23.2964C37.6192 23.6402 37.1529 23.8333 36.6667 23.8333H34.705C34.3097 26.5764 33.0371 29.1178 31.0774 31.0774C29.1178 33.0371 26.5764 34.3097 23.8333 34.705V36.6667C23.8333 37.1529 23.6402 37.6192 23.2964 37.963C22.9525 38.3068 22.4862 38.5 22 38.5C21.5138 38.5 21.0475 38.3068 20.7036 37.963C20.3598 37.6192 20.1667 37.1529 20.1667 36.6667V34.705C17.4236 34.3097 14.8822 33.0371 12.9226 31.0774C10.9629 29.1178 9.69029 26.5764 9.295 23.8333H7.33333C6.8471 23.8333 6.38079 23.6402 6.03697 23.2964C5.69315 22.9525 5.5 22.4862 5.5 22C5.5 21.5138 5.69315 21.0475 6.03697 20.7036C6.38079 20.3598 6.8471 20.1667 7.33333 20.1667H9.295C9.6917 17.4242 10.9648 14.8836 12.9242 12.9242C14.8836 10.9648 17.4242 9.6917 20.1667 9.295V7.33333C20.1667 6.8471 20.3598 6.38079 20.7036 6.03697C21.0475 5.69315 21.5138 5.5 22 5.5ZM12.8333 22C12.8333 19.5688 13.7991 17.2373 15.5182 15.5182C17.2373 13.7991 19.5688 12.8333 22 12.8333C24.4312 12.8333 26.7627 13.7991 28.4818 15.5182C30.2009 17.2373 31.1667 19.5688 31.1667 22C31.1667 24.4312 30.2009 26.7627 28.4818 28.4818C26.7627 30.2009 24.4312 31.1667 22 31.1667C19.5688 31.1667 17.2373 30.2009 15.5182 28.4818C13.7991 26.7627 12.8333 24.4312 12.8333 22Z" fill="#31A342"/>
</svg>
