<svg width="20" height="20" viewBox="0 0 20 20" fill="none" xmlns="http://www.w3.org/2000/svg">
<path fill-rule="evenodd" clip-rule="evenodd" d="M8.08744 0.475098H10.9823C12.6921 0.475098 14.0465 0.475098 15.106 0.645542C16.1963 0.821556 17.0791 1.19141 17.7758 2.02469C18.6353 3.05515 18.9098 4.4343 19.0093 6.22451C19.546 6.50636 19.9516 7.10458 19.9953 7.86211C20 7.93007 20 8.00248 20 8.06932V12.3761C20 12.4429 20 12.5153 19.9963 12.5822C19.9516 13.3397 19.546 13.939 19.0093 14.222C18.9098 16.0111 18.6353 17.3903 17.7758 18.4207C17.0791 19.254 16.1963 19.6239 15.106 19.7999C14.0456 19.9703 12.6921 19.9703 10.9823 19.9703H8.08744C6.37767 19.9703 5.02326 19.9703 3.96372 19.7999C2.87349 19.6239 1.9907 19.254 1.29395 18.4207C0.59814 17.5863 0.289302 16.5291 0.142326 15.2235C0 13.9535 0 12.3326 0 10.2851V10.1603C0 8.11276 0 6.49076 0.142326 5.2219C0.289302 3.91628 0.59814 2.85908 1.29395 2.02469C1.9907 1.19141 2.87349 0.821556 3.96372 0.645542C5.02419 0.475098 6.37767 0.475098 8.08744 0.475098ZM17.5981 14.4002H15.7953C13.8 14.4002 12.0921 12.5866 12.0921 10.2227C12.0921 7.85877 13.8 6.04516 15.7944 6.04516H17.5972C17.4912 4.55127 17.2521 3.76143 16.7879 3.20666C16.3944 2.73543 15.8549 2.45247 14.9191 2.30208C13.9637 2.14834 12.7033 2.14612 10.9293 2.14612H8.1386C6.36465 2.14612 5.10512 2.14834 4.14791 2.30208C3.21302 2.45247 2.67349 2.73543 2.28 3.20666C1.88651 3.67788 1.65116 4.32401 1.52558 5.44359C1.39721 6.5888 1.39535 8.09717 1.39535 10.2216C1.39535 12.346 1.39721 13.8555 1.52558 15.0007C1.65116 16.1203 1.88744 16.7664 2.28093 17.2376C2.67442 17.7089 3.21395 17.9918 4.14977 18.1422C5.10605 18.2959 6.36558 18.2982 8.13953 18.2982H10.9302C12.7042 18.2982 13.9647 18.2959 14.9209 18.1422C15.8558 17.9918 16.3953 17.7089 16.7888 17.2376C17.253 16.6829 17.4921 15.8941 17.5981 14.3991M3.72093 5.76666C3.72093 5.54506 3.79444 5.33255 3.92527 5.17586C4.05611 5.01917 4.23357 4.93115 4.4186 4.93115H8.13953C8.32457 4.93115 8.50203 5.01917 8.63286 5.17586C8.7637 5.33255 8.83721 5.54506 8.83721 5.76666C8.83721 5.98825 8.7637 6.20076 8.63286 6.35745C8.50203 6.51414 8.32457 6.60216 8.13953 6.60216H4.4186C4.23357 6.60216 4.05611 6.51414 3.92527 6.35745C3.79444 6.20076 3.72093 5.98825 3.72093 5.76666ZM18.3014 7.71618H15.7953C14.4707 7.71618 13.4874 8.89592 13.4874 10.2227C13.4874 11.5495 14.4707 12.7292 15.7944 12.7292H18.3228C18.5144 12.7147 18.5972 12.5599 18.6037 12.4663V7.97908C18.5972 7.88551 18.5144 7.73066 18.3228 7.71729L18.3014 7.71618Z" fill="#2D3633"/>
</svg>
