<svg width="21" height="21" viewBox="0 0 21 21" fill="none" xmlns="http://www.w3.org/2000/svg">
<path d="M13.9416 19.2242C13.6476 19.1172 13.3138 18.9957 13.1386 19.05C12.8882 19.1985 12.6825 19.4119 12.5433 19.6676L12.5465 19.6612C12.369 19.9526 12.1309 20.2025 11.8482 20.3936L11.8398 20.3991L11.8325 20.403C11.7397 20.4519 11.6385 20.4828 11.5342 20.4941L11.5394 20.4932C11.0985 20.537 10.7285 20.1984 10.3722 19.8695C10.1857 19.6565 9.94931 19.4929 9.68423 19.3933L9.68649 19.394C9.52641 19.4004 9.37118 19.4507 9.23772 19.5394L9.24066 19.5378C9.13347 19.5954 9.02395 19.6627 8.91443 19.73C8.79605 19.8043 8.67849 19.8731 8.56177 19.9364C8.42946 20.0242 8.28114 20.0851 8.12529 20.1155C7.96944 20.146 7.80912 20.1454 7.65349 20.1138L7.65575 20.1145C7.45193 20.0117 7.27193 19.8672 7.12737 19.6905C6.9828 19.5139 6.87689 19.3088 6.81645 19.0887L6.82011 19.099C6.72819 18.8249 6.56853 18.5784 6.35595 18.3825L6.3648 18.3919C6.09343 18.3289 5.81074 18.3336 5.5416 18.4055L5.53013 18.4088C5.05103 18.4854 4.55449 18.5647 4.21262 18.2838C4.06568 18.1123 3.95613 17.9119 3.89097 17.6956C3.8258 17.4793 3.80645 17.2518 3.83415 17.0276L3.83358 17.0336C3.85211 16.7462 3.7977 16.4589 3.67541 16.1982L3.67344 16.1945C3.55706 16.0517 3.21202 15.9693 2.9079 15.8962C2.43337 15.784 1.94264 15.6663 1.73016 15.2705C1.51768 14.8748 1.69067 14.4007 1.85737 13.9414C1.96439 13.6475 2.08591 13.3136 2.0316 13.1385C1.87942 12.8906 1.66677 12.6855 1.4136 12.5424L1.42043 12.5463C1.21781 12.4442 1.0388 12.3009 0.894923 12.1255C0.75105 11.9501 0.645503 11.7465 0.585075 11.5278L0.588732 11.5381C0.544949 11.0972 0.883522 10.7272 1.21243 10.3709C1.43453 10.175 1.59284 9.93962 1.68825 9.68219L1.68757 9.68445C1.64215 9.39937 1.52346 9.13098 1.34313 8.90556L1.34933 8.91358C1.20104 8.74111 1.0902 8.5397 1.02386 8.32213C0.957515 8.10456 0.937107 7.87558 0.96393 7.6497L0.963359 7.65568C1.02366 7.5085 1.11242 7.37468 1.22456 7.26188C1.33669 7.14908 1.46999 7.05953 1.61682 6.99836L1.61241 7.00073C1.72988 6.93765 1.85457 6.87922 1.97926 6.82078C2.09588 6.76668 2.21249 6.71258 2.31968 6.65502C2.46782 6.59224 2.59578 6.48982 2.68949 6.35904L2.68627 6.3636C2.74714 6.09824 2.74562 5.8153 2.67201 5.5408L2.66869 5.52934C2.59284 5.04984 2.51351 4.5533 2.79363 4.21182C2.85861 4.1316 2.93944 4.06566 3.03108 4.01812L3.03916 4.01378L3.03842 4.01418C3.37627 3.87534 3.72023 3.81835 4.05767 3.83201L4.04463 3.83239C4.33144 3.85796 4.6198 3.80484 4.87867 3.67873L4.8816 3.67716C5.02437 3.56077 5.10678 3.21574 5.17995 2.91161C5.29617 2.43398 5.41459 1.94286 5.81033 1.73038C6.20606 1.5179 6.68012 1.69089 7.13986 1.85833C7.43378 1.96535 7.76765 2.08687 7.9428 2.03255C8.19267 1.88315 8.39808 1.66967 8.53774 1.41422L8.53383 1.42104C8.71057 1.12876 8.94931 0.878843 9.23321 0.688937L9.24163 0.683472L9.24897 0.67953C9.34516 0.628509 9.44457 0.598149 9.54719 0.58845L9.542 0.589347C9.98291 0.545564 10.3529 0.884138 10.7092 1.21304C10.9051 1.43514 11.1401 1.59272 11.3972 1.68926L11.3949 1.68858C11.5553 1.68197 11.7106 1.63098 11.8436 1.54129L11.8407 1.54287C11.9479 1.48531 12.0574 1.418 12.1673 1.35141C12.2857 1.27937 12.404 1.20732 12.52 1.14503C12.6524 1.05706 12.8008 0.996074 12.9568 0.965558C13.1128 0.935041 13.2732 0.935598 13.429 0.967196L13.4267 0.966516C13.6305 1.06948 13.8104 1.214 13.9548 1.39076C14.0992 1.56752 14.205 1.7726 14.2653 1.99275L14.2617 1.98242C14.3535 2.25662 14.5135 2.50302 14.7266 2.69852L14.7181 2.68982C14.9831 2.75183 15.2668 2.7499 15.5409 2.67556L15.5524 2.67224C16.0319 2.59639 16.5284 2.51706 16.8699 2.79718C17.0165 2.96893 17.1258 3.16921 17.1911 3.38537C17.2564 3.60152 17.2761 3.82887 17.2491 4.05304L17.2496 4.04706C17.2299 4.33296 17.2827 4.61922 17.4033 4.87923L17.4056 4.88363C17.522 5.0264 17.867 5.10881 18.1712 5.18198C18.6499 5.29667 19.1406 5.41437 19.3531 5.8101C19.5656 6.20583 19.393 6.68063 19.2255 7.14036C19.1185 7.43429 18.9966 7.76743 19.0513 7.9433C19.2105 8.20114 19.4248 8.40108 19.6697 8.54011L19.6625 8.53547C19.8649 8.63748 20.0438 8.78073 20.1876 8.95601C20.3314 9.1313 20.4369 9.33473 20.4974 9.55323L20.4938 9.5429C20.5387 9.98415 20.199 10.3538 19.8701 10.7101C19.6568 10.8967 19.4933 11.1334 19.3942 11.3988L19.3949 11.3966C19.4403 11.6816 19.559 11.95 19.7394 12.1755L19.7332 12.1674C19.8813 12.3399 19.992 12.5412 20.0583 12.7586C20.1245 12.976 20.1449 13.2049 20.1182 13.4306L20.1187 13.4246C20.0587 13.5718 19.9703 13.7058 19.8584 13.8188C19.7465 13.9318 19.6134 14.0215 19.4668 14.083L19.4712 14.0806C19.3537 14.1437 19.2291 14.2021 19.1044 14.2606C18.9893 14.3126 18.8758 14.3679 18.7639 14.4263C18.6158 14.4891 18.4878 14.5915 18.3941 14.7223L18.3974 14.7178C18.335 14.9891 18.3399 15.2716 18.4116 15.5406L18.4149 15.552C18.4908 16.0315 18.5701 16.5281 18.29 16.8695C18.225 16.9498 18.1442 17.0157 18.0525 17.0632L18.0445 17.0676C17.7219 17.2008 17.375 17.2622 17.0263 17.2482L17.0386 17.2482C16.7518 17.223 16.4636 17.2763 16.205 17.4026L16.202 17.4042C16.0593 17.5206 15.9768 17.8656 15.9037 18.1698C15.7863 18.647 15.6686 19.1378 15.2722 19.3506C14.8757 19.5635 14.4016 19.3905 13.9416 19.2242ZM10.3054 6.23012L10.2184 14.6647C10.2182 14.6887 10.2242 14.7124 10.2358 14.7334C10.2475 14.7543 10.2644 14.7719 10.285 14.7844C10.3055 14.7968 10.3289 14.8037 10.3529 14.8044C10.3769 14.8051 10.4007 14.7995 10.4218 14.7882L11.0437 14.4543C11.0656 14.443 11.0839 14.4259 11.0966 14.4049C11.1094 14.3838 11.116 14.3597 11.1159 14.3351L11.197 5.9018C11.1972 5.87779 11.1912 5.85413 11.1795 5.83315C11.1679 5.81217 11.1509 5.79459 11.1304 5.78214C11.1099 5.76968 11.0865 5.76278 11.0625 5.76212C11.0385 5.76145 11.0147 5.76704 10.9935 5.77834L10.3775 6.10909C10.356 6.1211 10.338 6.13852 10.3253 6.15961C10.3126 6.18071 10.306 6.20549 10.3054 6.23012ZM11.5818 9.8475C11.53 9.97473 11.5069 10.1118 11.5141 10.249C11.5214 10.3862 11.5589 10.5201 11.6239 10.6412L12.5704 12.404C12.706 12.6565 12.9431 12.8196 13.204 12.8706L13.2063 12.8712C13.4786 12.9274 13.7732 12.8913 14.0397 12.7482C14.3062 12.6051 14.4987 12.3788 14.6034 12.1192L14.6027 12.1215C14.7062 11.8739 14.7012 11.5862 14.5656 11.3336L13.6195 9.57155C13.4839 9.31899 13.2483 9.15322 12.9887 9.09777L12.9868 9.09783C12.7109 9.0307 12.42 9.06799 12.17 9.20252L12.1472 9.21474L12.1487 9.21395L12.1259 9.22617C11.8749 9.36051 11.6816 9.58202 11.5826 9.84897L11.5837 9.84744L11.5818 9.8475ZM6.76799 8.35837C6.71617 8.4856 6.69307 8.62271 6.70036 8.7599C6.70764 8.8971 6.74512 9.03099 6.81012 9.15202L7.75623 10.9141C7.89223 11.1674 8.12931 11.3324 8.39142 11.3836L8.39368 11.3843C8.66717 11.4427 8.9633 11.4076 9.23055 11.2641C9.49779 11.1206 9.69098 10.8921 9.79373 10.6307L9.79305 10.6329C9.89725 10.3831 9.89218 10.0936 9.75538 9.83879L8.81164 8.08113C8.67485 7.82636 8.43777 7.66139 8.17448 7.60791L8.17262 7.60796C7.88689 7.54624 7.58852 7.58837 7.33105 7.72678C7.07359 7.8652 6.87388 8.09084 6.76776 8.36322L6.76844 8.36096L6.76799 8.35837ZM13.4586 12.05C13.436 12.0461 13.4146 12.037 13.3961 12.0235C13.3775 12.0101 13.3623 11.9925 13.3516 11.9722L12.4051 10.2094C12.3822 10.1668 12.382 10.1187 12.3991 10.0783C12.4203 10.0253 12.459 9.98119 12.5088 9.95324L12.5183 9.94811L12.5176 9.94851L12.5264 9.94378C12.5771 9.91726 12.6355 9.90899 12.6916 9.92032C12.7141 9.92422 12.7353 9.93319 12.7538 9.94654C12.7723 9.95989 12.7875 9.97728 12.7982 9.99738L13.7451 11.7609C13.756 11.7809 13.7622 11.803 13.7633 11.8257C13.7643 11.8485 13.7602 11.8711 13.7512 11.892C13.7289 11.9456 13.6877 11.9923 13.632 12.0222C13.5762 12.0522 13.5145 12.0607 13.4564 12.0493L13.4571 12.0489L13.4586 12.05ZM8.64818 10.56C8.62598 10.5551 8.60502 10.5456 8.58662 10.5322C8.56821 10.5188 8.55274 10.5018 8.54115 10.4822L7.59504 8.72017C7.57218 8.67759 7.57189 8.6295 7.58859 8.58837C7.61089 8.53478 7.65204 8.4881 7.70784 8.45814C7.76363 8.42818 7.82528 8.41967 7.8834 8.43103C7.906 8.43495 7.92667 8.44439 7.94522 8.45788C7.96378 8.47136 7.97899 8.48893 7.9897 8.50921L8.9362 10.272C8.94619 10.2924 8.95191 10.3146 8.95302 10.3372C8.95413 10.3599 8.9506 10.3826 8.94265 10.4038C8.92035 10.4574 8.8792 10.5041 8.8234 10.534C8.76761 10.564 8.70596 10.5725 8.64784 10.5612L8.64818 10.56Z" fill="#FA9D2B"/>
</svg>
