<svg width="20" height="20" viewBox="0 0 20 20" fill="none" xmlns="http://www.w3.org/2000/svg">
<path d="M19.2787 9.55575C19.2787 9.3345 19.17 9.14 19.0045 9.018L19.008 9.012L16.677 7.66625L18.0187 5.34225L18.0142 5.3395C18.0566 5.2437 18.0757 5.13929 18.0702 5.03471C18.0647 4.93013 18.0346 4.82832 17.9825 4.7375C17.9298 4.64683 17.8566 4.56984 17.7686 4.51277C17.6807 4.4557 17.5805 4.42015 17.4762 4.409V4.4025H14.7843V1.71825H14.7787C14.7675 1.61413 14.7319 1.51412 14.6748 1.4263C14.6178 1.33849 14.5408 1.26533 14.4503 1.21275C14.3593 1.16033 14.2573 1.13017 14.1525 1.12474C14.0477 1.11931 13.9431 1.13876 13.8472 1.1815L13.844 1.17575L11.4738 2.54425L10.1613 0.27075L10.1565 0.2735C10.0947 0.188962 10.0138 0.120155 9.92051 0.0726426C9.82718 0.0251302 9.72398 0.000245557 9.61925 0C9.398 0 9.20325 0.10875 9.0815 0.27425L9.0755 0.27075L7.74125 2.58175L5.44375 1.25525L5.441 1.26C5.3452 1.2177 5.24079 1.19853 5.13621 1.20404C5.03163 1.20956 4.92982 1.2396 4.839 1.29175C4.74829 1.34438 4.67125 1.41763 4.61413 1.50559C4.55701 1.59355 4.52143 1.69372 4.51025 1.798H4.5035V4.4665H1.8505V4.47175C1.74638 4.48301 1.64637 4.51861 1.55855 4.57568C1.47074 4.63275 1.39758 4.70968 1.345 4.80025C1.29281 4.89115 1.26277 4.99306 1.25729 5.09774C1.25182 5.20241 1.27108 5.3069 1.3135 5.40275L1.30775 5.40625L2.61925 7.678L0.27075 9.034L0.2735 9.03875C0.188962 9.10057 0.120155 9.18141 0.0726428 9.27474C0.0251305 9.36807 0.000245557 9.47127 0 9.576C0 9.79725 0.10875 9.992 0.27425 10.1138L0.27075 10.1198L2.60175 11.4655L1.26 13.7895L1.2645 13.792C1.2222 13.8878 1.20303 13.9922 1.20854 14.0968C1.21406 14.2014 1.2441 14.3032 1.29625 14.394C1.3489 14.4847 1.42218 14.5617 1.51013 14.6187C1.59808 14.6758 1.69825 14.7114 1.8025 14.7225V14.7292H4.49425V17.4132H4.49975C4.52275 17.6173 4.637 17.8083 4.82825 17.9188C4.91923 17.971 5.02125 18.001 5.12601 18.0065C5.23078 18.0119 5.33535 17.9925 5.43125 17.95L5.4345 17.9557L7.80475 16.5872L9.11725 18.8608L9.122 18.858C9.18382 18.9425 9.26466 19.0113 9.35799 19.0589C9.45132 19.1064 9.55452 19.1313 9.65925 19.1315C9.8805 19.1315 10.0752 19.0228 10.197 18.8575L10.2028 18.8608L11.537 16.5497L13.8347 17.8762L13.8375 17.8715C13.9333 17.9138 14.0377 17.933 14.1423 17.9275C14.2469 17.9219 14.3487 17.8919 14.4395 17.8398C14.5303 17.7873 14.6075 17.7141 14.6646 17.6261C14.7218 17.5381 14.7573 17.4378 14.7682 17.3335H14.775V14.6653H17.4282V14.66C17.5324 14.6487 17.6324 14.6131 17.7202 14.5561C17.808 14.499 17.8812 14.4221 17.9338 14.3315C17.9859 14.2406 18.016 14.1387 18.0215 14.034C18.0269 13.9293 18.0077 13.8248 17.9653 13.729L17.971 13.7257L16.6595 11.454L19.008 10.098L19.0052 10.0933C19.0898 10.0314 19.1586 9.95053 19.2062 9.85715C19.2537 9.76377 19.2785 9.66052 19.2787 9.55575ZM6.5235 13.365C5.966 13.687 5.4605 13.731 5.03075 13.6155L5.091 12.9412C5.4165 13.0355 5.83725 13.035 6.23475 12.8053C6.5765 12.608 6.64925 12.364 6.552 12.1958C6.26225 11.6943 4.804 13.0033 4.17725 11.918C3.90025 11.438 4.0855 10.8003 4.76475 10.4082C5.223 10.1435 5.6835 10.0625 6.12125 10.1613L6.044 10.817C5.68575 10.736 5.317 10.816 5.023 10.9855C4.7635 11.1355 4.68125 11.3328 4.78125 11.506C5.0435 11.96 6.5225 10.697 7.144 11.7733C7.44875 12.3005 7.298 12.9183 6.5235 13.365ZM10.0092 11.2835L9.54575 10.8997L8.309 11.6138L8.40925 12.2073L7.713 12.609L7.15925 9.08325L7.929 8.639L10.7055 10.8818L10.0092 11.2835ZM10.9475 10.742L9.28225 7.8575L9.90075 7.50025L11.254 9.844L12.4735 9.14L12.7857 9.68075L10.9475 10.742ZM13.2005 9.44125L11.5352 6.557L13.5763 5.37825L13.8883 5.91875L12.4615 6.74275L12.811 7.34825L14.2075 6.54175L14.5195 7.08225L13.123 7.8885L13.5025 8.546L14.9295 7.722L15.2418 8.2625L13.2005 9.44125Z" fill="#FA9D2B"/>
</svg>
