<svg width="122" height="85" viewBox="0 0 122 85" fill="none" xmlns="http://www.w3.org/2000/svg">
<ellipse opacity="0.1" cx="61.4085" cy="53.6312" rx="36.7186" ry="31.369" fill="#FE8C00"/>
<ellipse cx="20.5437" cy="29.8505" rx="2.36895" ry="2.0238" fill="#B468FF"/>
<ellipse cx="65.2578" cy="7.84258" rx="5.03401" ry="4.30058" fill="#B468FF"/>
<ellipse cx="110.564" cy="48.0657" rx="4.73789" ry="4.04761" fill="#FE8C00"/>
<path d="M89.8353 2.52979L91.0682 5.52414L94.5732 6.57739L91.0682 7.63064L89.8353 10.625L88.6024 7.63064L85.0974 6.57739L88.6024 5.52414L89.8353 2.52979Z" fill="#FB46FF"/>
<path d="M16.7851 39.7322C16.7851 39.7322 15.8101 43.0949 11.192 43.2397C8.11336 43.3362 7.38911 40.6105 3.79269 42.4556C2.19105 43.2773 1 45.7739 1 45.7739" stroke="#FB46FF" stroke-width="0.317647" stroke-linecap="round"/>
<path d="M18.4707 59.1958L20.1812 63.047L24.6892 64.5083L20.1812 65.9696L18.4707 69.8208L16.7603 65.9696L12.2523 64.5083L16.7603 63.047L18.4707 59.1958Z" fill="#FE8C00"/>
<ellipse cx="59.6316" cy="1.51776" rx="1.18447" ry="1.0119" fill="#FB46FF"/>
<path d="M22.5121 1.90352C23.0943 6.22736 34.8559 10.537 35.1179 6.99946C35.5332 1.39371 19.671 5.76446 41.3116 13.1103" stroke="#FE8C00" stroke-width="0.317647" stroke-linecap="round"/>
<path d="M109.379 67.7012C112.319 67.3448 118.729 67.9455 120.851 73.1989" stroke="#B468FF" stroke-width="0.317647" stroke-linecap="round"/>
<path d="M106.465 18.906C106.465 18.906 110.764 20.7743 112.565 19.0998C114.209 17.5724 112.309 15.1886 114.297 13.9974C115.915 13.0282 119.342 13.6666 119.342 13.6666" stroke="#FE8C00" stroke-width="0.317647" stroke-linecap="round"/>
<rect x="104.641" y="37.4399" width="4.14565" height="3.54166" rx="0.211765" fill="#FE8C00"/>
<path d="M61.9686 27.0776C62.3894 26.9191 62.8488 26.8993 63.2791 27.0181L63.4617 27.0776L82.2908 34.1704C82.7493 34.3432 83.1319 34.6684 83.3758 35.0884L83.4715 35.2739L91.1336 52.0962C91.3557 52.5842 91.3834 53.1354 91.2166 53.6392L91.1336 53.8511L83.4715 70.6733C83.2684 71.1192 82.9177 71.4787 82.4822 71.6938L82.2908 71.7769L63.4617 78.8687C63.0406 79.0273 62.5818 79.0473 62.1512 78.9282L61.9686 78.8687L43.1404 71.7769C42.682 71.6042 42.2994 71.2789 42.0555 70.8589L41.9598 70.6733L34.2977 53.8511C34.0755 53.3631 34.0479 52.8119 34.2147 52.3081L34.2977 52.0962L41.9598 35.2739C42.1629 34.828 42.5135 34.4685 42.949 34.2534L43.1404 34.1704L61.9686 27.0776Z" fill="#F5F5FF" stroke="#FE8C00" stroke-width="0.847059"/>
<path fill-rule="evenodd" clip-rule="evenodd" d="M69.6732 46.5182C70.0011 46.2227 70.4436 46.0563 70.9053 46.0552C71.3669 46.054 71.8105 46.2181 72.1401 46.512C72.4698 46.8059 72.659 47.206 72.6669 47.6257C72.6747 48.0454 72.5006 48.4511 72.1822 48.755L62.8303 59.3853C62.6696 59.5428 62.4756 59.6691 62.26 59.7568C62.0443 59.8445 61.8115 59.8917 61.5753 59.8957C61.3391 59.8997 61.1044 59.8603 60.8854 59.7799C60.6663 59.6996 60.4673 59.5799 60.3003 59.4279L54.104 53.7911C53.9314 53.6448 53.7929 53.4685 53.6969 53.2725C53.6008 53.0765 53.5492 52.8649 53.545 52.6504C53.5409 52.4358 53.5843 52.2228 53.6726 52.0238C53.761 51.8249 53.8925 51.6441 54.0594 51.4924C54.2262 51.3407 54.425 51.2211 54.6437 51.1407C54.8625 51.0604 55.0968 51.0209 55.3328 51.0247C55.5687 51.0285 55.8013 51.0754 56.0168 51.1628C56.2324 51.2501 56.4263 51.376 56.5872 51.533L61.4927 55.9917L69.6287 46.5651C69.6432 46.5486 69.6589 46.5329 69.6756 46.5182H69.6732Z" fill="#FE8C00"/>
</svg>
